<?xml version="1.0" encoding="UTF-8"?>
<svg width="73px" height="71px" viewBox="0 0 73 71" version="1.1" xmlns="http://www.w3.org/2000/svg" xmlns:xlink="http://www.w3.org/1999/xlink">
    <g id="Page-1" stroke="none" stroke-width="1" fill="none" fill-rule="evenodd">
        <rect id="Rectangle" fill="#BA3A38" x="0" y="0" width="73" height="71" rx="4"></rect>
        <g id="notification" transform="translate(13.000000, 11.000000)" fill-rule="nonzero" fill="#FFFFFF">
            <path d="M44,32 L43.5,32 C41.6,32 40,30.4 40,28.5 L40,17 C40,7.9 32.4,0.6 23.2,1 C14.6,1.4 8,8.8 8,17.5 L8,28.6 C8,30.5 6.4,32 4.5,32 L4,32 C1.8,32 0,33.9 0,36.1 L0,37.6 C0,38.3 0.7,39 1.5,39 L46.5,39 C47.3,39 48,38.3 48,37.5 L48,36 C48,33.8 46.2,32 44,32 Z M28.9,43 L19.1,43 C18.5,43 18,43.6 18.1,44.2 C18.6,47 21.1,49 24,49 C26.9,49 29.4,46.9 29.9,44.2 C30,43.6 29.5,43 28.9,43 Z" id="Shape"></path>
        </g>
    </g>
</svg>