<?xml version="1.0" encoding="UTF-8"?>
<svg width="70px" height="70px" viewBox="0 0 70 70" version="1.1" xmlns="http://www.w3.org/2000/svg" xmlns:xlink="http://www.w3.org/1999/xlink">
    <g id="Page-1" stroke="none" stroke-width="1" fill="none" fill-rule="evenodd">
        <rect id="Rectangle" fill="#F89762" x="0" y="0" width="70" height="70" rx="4"></rect>
        <g id="map" transform="translate(11.000000, 10.000000)" fill-rule="nonzero" fill="#FFFFFF">
            <path d="M46.8,7.5 L32.4,0.3 C31.7,-1.66533454e-16 30.9,-1.66533454e-16 30.3,0.3 L17,7 L3.6,0.3 C2.8,-0.1 1.8,-0.1 1.1,0.4 C0.4,0.8 -3.99680289e-15,1.6 -3.99680289e-15,2.4 L-3.99680289e-15,38.4 C-3.99680289e-15,39.3 0.5,40.1 1.3,40.5 L15.7,47.7 C16.4,48 17.2,48 17.8,47.7 L31.2,41 L44.5,47.7 C44.8,47.9 45.2,48 45.6,48 C46,48 46.5,47.9 46.9,47.6 C47.6,47.2 48,46.4 48,45.6 L48,9.6 C48,8.7 47.6,7.9 46.8,7.5 Z M43,12.1 L43,31.1 C43,32.2 42,33 41,32.6 C37.3,31.2 40.3,25 37.6,21.6 C35.1,18.5 31.9,21.7 28.8,16.8 C25.9,12.1 29.8,8.7 33.4,6.9 C33.9,6.7 34.4,6.7 34.8,6.9 L42.2,10.6 C42.8,10.9 43,11.5 43,12.1 L43,12.1 Z M22.9,39.9 C22.3,40.2 21.6,40.1 21.1,39.7 C20.1,38.8 19.3,37.4 19.3,36 C19.3,33.6 15.3,34.4 15.3,29.6 C15.3,25.7 10.7,24.7 6.8,25.1 C5.8,25.2 5.1,24.5 5.1,23.5 L5.1,8.9 C5.1,7.7 6.3,6.9 7.3,7.5 L15.9,11.8 C16,11.8 16.1,11.9 16.1,11.9 L16.4,12.1 C20,14.2 19.3,15.9 17.8,18.5 C16.1,21.4 15.4,18.5 13,17.7 C10.6,16.9 8.2,18.5 9,20.1 C9.8,21.7 12.2,20.1 13.8,21.7 C15.4,23.3 15.4,25.7 20.2,24.1 C25,22.5 25.8,23.3 27.4,24.9 C29,26.5 29.8,29.7 27.4,32.1 C26,33.5 25.4,36.5 24.8,38.5 C24.7,38.9 24.4,39.3 24,39.5 L22.9,39.9 L22.9,39.9 Z" id="Shape"></path>
        </g>
    </g>
</svg>