<?xml version="1.0" encoding="UTF-8"?>
<svg width="85px" height="85px" viewBox="0 0 85 85" version="1.1" xmlns="http://www.w3.org/2000/svg" xmlns:xlink="http://www.w3.org/1999/xlink">
    <g id="Page-1" stroke="none" stroke-width="1" fill="none" fill-rule="evenodd">
        <rect id="Rectangle" fill="#A0D96D" x="0" y="0" width="85" height="85" rx="4"></rect>
        <g id="custom5" transform="translate(13.000000, 12.000000)" fill-rule="nonzero" fill="#FFFFFF">
            <path d="M58.8,4.5 C48.6,0.6 36.7,-0.3 26.3,3.1 C17,6.2 7.5,13.1 6.1,23.5 C5.8,25.7 5.9,28 6.4,30.1 C6.6,31.2 7,32.3 7.4,33.4 C7.6,34 7.8,34.5 8.1,35 L6.9,36.8 C4,41.3 2,46.4 0.8,51.6 C0.3,53.8 -0.9,57 1.4,58.6 C2.3,59.2 3.6,59.2 4.5,58.7 C5.7,58 5.9,56.8 6.1,55.5 C7,50.2 8.8,44.9 11.7,40.4 C13.1,38.2 14.6,36 16.3,34 C17.8,32.4 20,29.3 22.5,30.2 C25,31.1 24.9,34 23.2,35.5 C21.5,37 20.1,38.6 20.1,41 C20.1,42.8 20.9,44.6 22.4,45.8 C24.4,47.4 28.4,47.8 30.8,47.6 C36.1,47.3 40.4,45.7 44.7,42.6 C50.3,38.7 52.5,31.9 53.6,25.4 C54.3,21.4 54.8,17.4 56.2,13.6 C56.8,12 57.6,10.4 58.5,9 C58.9,8.3 59.7,7.5 59.9,6.7 C60.2,5.7 59.6,4.8 58.8,4.5 L58.8,4.5 Z" id="Shape"></path>
        </g>
    </g>
</svg>