<?xml version="1.0" encoding="UTF-8"?>
<svg width="84px" height="84px" viewBox="0 0 84 84" version="1.1" xmlns="http://www.w3.org/2000/svg" xmlns:xlink="http://www.w3.org/1999/xlink">
    <g id="Page-1" stroke="none" stroke-width="1" fill="none" fill-rule="evenodd">
        <rect id="Rectangle" fill="#F1CE64" x="0" y="0" width="84" height="84" rx="4"></rect>
        <g id="feed" transform="translate(10.000000, 18.000000)" fill-rule="nonzero" fill="#FFFFFF">
            <path d="M31,47 C30.6,47 30.1,46.9 29.6,46.6 C28.8,46.2 28.2,45.3 28,44.4 L20.2,13.2 L13.7,28.1 C13.3,29.3 12.2,30 11,30 L2,30 C0.9,30 3.55271368e-15,29.1 3.55271368e-15,28 L3.55271368e-15,26 C3.55271368e-15,24.9 0.9,24 2,24 L9,24 L18.2,2.8 C18.7,1.6 19.9,0.9 21.2,1 C22.5,1.1 23.6,2 23.9,3.3 L31.8,34.9 L42.2,11.8 C42.7,10.6 43.9,9.9 45.2,10 C46.3,10.1 47.3,10.9 47.8,12 L53,24 L62,24 C63.1,24 64,24.9 64,26 L64,28 C64,29.1 63.1,30 62,30 L51,30 C49.8,30 48.7,29.3 48.2,28.2 L44.9,20.5 L33.7,45.2 C33.2,46.3 32.2,47 31,47 L31,47 Z" id="Shape"></path>
        </g>
    </g>
</svg>