<?xml version="1.0" encoding="UTF-8"?>
<svg width="120px" height="120px" viewBox="0 0 120 120" version="1.1" xmlns="http://www.w3.org/2000/svg" xmlns:xlink="http://www.w3.org/1999/xlink">
    <g id="Page-1" stroke="none" stroke-width="1" fill="none" fill-rule="evenodd">
        <g id="filter" fill-rule="nonzero">
            <rect id="Rectangle" fill="#6CCDF0" x="0" y="0" width="120" height="120"></rect>
            <path d="M13,84.7684211 L32.5263158,61.3368421 C33.0842105,60.7789474 33.0842105,59.6631579 32.5263158,58.5473684 L13,36.2315789 L13,35.1157895 C13,34.5578947 13.5578947,34 14.1157895,34 L42.0105263,34 C43.1263158,34 43.6842105,34 43.6842105,34.5578947 L63.7684211,59.1052632 C64.3263158,59.6631579 64.3263158,60.7789474 63.7684211,61.8947368 L44.2421053,85.8842105 C43.6842105,86.4421053 43.1263158,87 42.0105263,87 L14.6736842,87 C13.5578947,87 13,86.4421053 13,85.3263158 L13,84.7684211 L13,84.7684211 Z M55.4,84.7684211 L74.3684211,61.3368421 C74.9263158,60.7789474 74.9263158,59.6631579 74.3684211,58.5473684 L55.4,36.2315789 L55.4,35.1157895 C55.4,34.5578947 55.9578947,34 56.5157895,34 L84.4105263,34 C84.9684211,34 85.5263158,34 86.0842105,34.5578947 L106.168421,59.1052632 C106.726316,59.6631579 106.726316,60.7789474 106.168421,61.8947368 L86.0842105,85.8842105 C86.0842105,86.4421053 84.9684211,87 84.4105263,87 L56.5157895,87 C55.9578947,87 55.4,86.4421053 55.4,85.3263158 L55.4,84.7684211 L55.4,84.7684211 Z" id="Shape" fill="#FFFFFF"></path>
        </g>
    </g>
</svg>