<?xml version="1.0" encoding="UTF-8"?>
<svg width="84px" height="84px" viewBox="0 0 84 84" version="1.1" xmlns="http://www.w3.org/2000/svg" xmlns:xlink="http://www.w3.org/1999/xlink">
    <g id="Page-1" stroke="none" stroke-width="1" fill="none" fill-rule="evenodd">
        <rect id="Rectangle" fill="#9FD86D" x="0" y="0" width="84" height="84" rx="4"></rect>
        <g id="contact_list" transform="translate(12.000000, 12.000000)" fill-rule="nonzero" fill="#FFFFFF">
            <path d="M8.3,0.7 C3.8,0.7 0.1,4.2 0.1,8.5 L0.1,52.8 C0.1,57.1 3.8,60.6 8.3,60.6 L51.9,60.6 C56.4,60.6 60.1,57.1 60.1,52.8 L60.1,8.5 C60.1,4.2 56.4,0.7 51.9,0.7 L8.3,0.7 Z M19.2,18.9 C19.2,20.3 18,21.5 16.5,21.5 L13.8,21.5 C12.3,21.5 11.1,20.3 11.1,18.9 L11.1,16.3 C11.1,14.9 12.3,13.7 13.8,13.7 L16.5,13.7 C18,13.7 19.2,14.9 19.2,16.3 L19.2,18.9 Z M49.2,18.9 C49.2,20.3 48,21.5 46.5,21.5 L27.4,21.5 C25.9,21.5 24.7,20.3 24.7,18.9 L24.7,16.3 C24.7,14.9 25.9,13.7 27.4,13.7 L46.5,13.7 C48,13.7 49.2,14.9 49.2,16.3 L49.2,18.9 Z M19.2,32 C19.2,33.4 18,34.6 16.5,34.6 L13.8,34.6 C12.3,34.6 11.1,33.4 11.1,32 L11.1,29.4 C11.1,28 12.3,26.8 13.8,26.8 L16.5,26.8 C18,26.8 19.2,28 19.2,29.4 L19.2,32 Z M44.2,32 C44.2,33.4 43,34.6 41.5,34.6 L27.4,34.6 C25.9,34.6 24.7,33.4 24.7,32 L24.7,29.4 C24.7,28 25.9,26.8 27.4,26.8 L41.5,26.8 C43,26.8 44.2,28 44.2,29.4 L44.2,32 Z M19.2,45 C19.2,46.4 18,47.6 16.5,47.6 L13.8,47.6 C12.3,47.6 11.1,46.4 11.1,45 L11.1,42.4 C11.1,41 12.3,39.8 13.8,39.8 L16.5,39.8 C18,39.8 19.2,41 19.2,42.4 L19.2,45 Z M49.2,45 C49.2,46.4 48,47.6 46.5,47.6 L27.4,47.6 C25.9,47.6 24.7,46.4 24.7,45 L24.7,42.4 C24.7,41 25.9,39.8 27.4,39.8 L46.5,39.8 C48,39.8 49.2,41 49.2,42.4 L49.2,45 Z" id="Shape"></path>
        </g>
    </g>
</svg>