<?xml version="1.0" encoding="UTF-8"?>
<svg width="120px" height="120px" viewBox="0 0 120 120" version="1.1" xmlns="http://www.w3.org/2000/svg" xmlns:xlink="http://www.w3.org/1999/xlink">
    <g id="Page-1" stroke="none" stroke-width="1" fill="none" fill-rule="evenodd">
        <g id="filter">
            <rect id="Rectangle" fill="#6CCDF0" x="0" y="0" width="120" height="120"></rect>
            <path d="M29.4684685,33.2432432 C29.4684685,32.1216216 28.3468468,31 26.8513514,31 L21.6171171,31 C20.1216216,31 19,32.1216216 19,33.2432432 L19,38.4774775 C19,39.972973 20.1216216,41.0945946 21.6171171,41.0945946 L26.8513514,41.0945946 C28.3468468,41.0945946 29.4684685,39.972973 29.4684685,38.4774775 L29.4684685,33.2432432 L29.4684685,33.2432432 Z M102,33.2432432 C102,32.1216216 100.878378,31 99.3828829,31 L38.8153153,31 C37.6936937,31 36.1981982,32.1216216 36.1981982,33.2432432 L36.1981982,38.4774775 C36.1981982,39.972973 37.6936937,41.0945946 38.8153153,41.0945946 L99.3828829,41.0945946 C100.878378,41.0945946 102,39.972973 102,38.4774775 L102,33.2432432 L102,33.2432432 Z M29.4684685,57.545045 C29.4684685,56.0495495 28.3468468,54.9279279 26.8513514,54.9279279 L21.6171171,54.9279279 C20.1216216,54.9279279 19,56.0495495 19,57.545045 L19,62.7792793 C19,64.2747748 20.1216216,65.3963964 21.6171171,65.3963964 L26.8513514,65.3963964 C28.3468468,65.3963964 29.4684685,64.2747748 29.4684685,62.7792793 L29.4684685,57.545045 L29.4684685,57.545045 Z M94.8963964,57.545045 C94.8963964,56.0495495 93.7747748,54.9279279 92.2792793,54.9279279 L38.8153153,54.9279279 C37.6936937,54.9279279 36.1981982,56.0495495 36.1981982,57.545045 L36.1981982,62.7792793 C36.1981982,64.2747748 37.6936937,65.3963964 38.8153153,65.3963964 L92.2792793,65.3963964 C93.7747748,65.3963964 94.8963964,64.2747748 94.8963964,62.7792793 L94.8963964,57.545045 L94.8963964,57.545045 Z M29.4684685,81.8468468 C29.4684685,80.3513514 28.3468468,79.2297297 26.8513514,79.2297297 L21.6171171,79.2297297 C20.1216216,79.2297297 19,80.3513514 19,81.8468468 L19,87.0810811 C19,88.2027027 20.1216216,89.3243243 21.6171171,89.3243243 L26.8513514,89.3243243 C28.3468468,89.3243243 29.4684685,88.2027027 29.4684685,87.0810811 L29.4684685,81.8468468 L29.4684685,81.8468468 Z M102,81.8468468 C102,80.3513514 100.878378,79.2297297 99.3828829,79.2297297 L38.8153153,79.2297297 C37.6936937,79.2297297 36.1981982,80.3513514 36.1981982,81.8468468 L36.1981982,87.0810811 C36.1981982,88.2027027 37.6936937,89.3243243 38.8153153,89.3243243 L99.3828829,89.3243243 C100.878378,89.3243243 102,88.2027027 102,87.0810811 L102,81.8468468 L102,81.8468468 Z" id="Shape" fill="#FFFFFF"></path>
        </g>
    </g>
</svg>